name analog
datacolumns 19
datarows 39
range 0.0 0.019
endheader
time	ground_force_vx	ground_force_vy	ground_force_vz	ground_force_px	ground_force_py	ground_force_pz	l_ground_force_vx	l_ground_force_vy	l_ground_force_vz	l_ground_force_px	l_ground_force_py	l_ground_force_pz	ground_torque_x	ground_torque_y	ground_torque_z	l_ground_torque_x	l_ground_torque_y	l_ground_torque_z
0.0	-0.0	-0.0	-0.0	-1.585279107093811	78.45668029785156	-550.7057495117188	-9.157464981079102	-19.229366302490234	-207.2184600830078	-35.42427444458008	15.967679023742676	76.24309539794922	-0.0	-0.0	-0.0	41034.09375	-17600.251953125	-2191.44677734375
0.0005	-0.0	-0.0	-0.0	-1.759615182876587	80.19670867919922	-560.8601684570312	-8.293750762939453	-17.884437561035156	-200.9339599609375	-35.22340774536133	16.240100860595703	75.01261901855469	-0.0	-0.0	-0.0	39900.1484375	-18180.58203125	-2028.0692138671875
0.001	-0.0	-0.0	-0.0	-1.6046310663223269	81.42235565185547	-570.1287231445312	-7.339869022369385	-16.161609649658203	-193.6881256103516	-35.26975631713867	16.261255264282227	75.54146575927734	-0.0	-0.0	-0.0	39041.02734375	-18608.41015625	-1900.0904541015625
0.0015	-0.0	-0.0	-0.0	-2.498900413513184	82.64691925048828	-577.1873168945312	-5.27550745010376	-13.687644004821776	-186.79173278808597	-35.20148468017578	16.059152603149414	75.89590454101562	-0.0	-0.0	-0.0	38057.375	-18903.1953125	-1624.4774169921875
0.002	-0.0	-0.0	-0.0	-3.3237781524658203	83.65116882324219	-586.806640625	-3.946094274520874	-11.766571044921877	-181.3822479248047	-35.24663543701172	16.306804656982422	76.507568359375	-0.0	-0.0	-0.0	37088.3125	-19470.935546875	-1407.33544921875
0.0025	-0.0	-0.0	-0.0	-3.63551926612854	84.20613861083984	-595.8145751953125	-2.8387451171875	-10.400964736938477	-177.45887756347656	-35.26945877075195	16.240436553955078	76.86090850830078	-0.0	-0.0	-0.0	36151.25	-19775.25390625	-1324.8564453125
0.003	-0.0	-0.0	-0.0	-4.103071689605713	84.8084945678711	-604.2932739257812	-1.108523964881897	-8.544584274291992	-170.29940795898438	-35.38059997558594	16.0598087310791	75.80744934082031	-0.0	-0.0	-0.0	35417.37890625	-19971.587890625	-1033.3616943359375
0.0035	-0.0	-0.0	-0.0	-4.148541927337647	84.83049011230469	-613.302001953125	-0.376866728067398	-6.579044818878174	-164.45040893554688	-35.24663543701172	16.239694595336914	75.98045349121094	-0.0	-0.0	-0.0	34694.484375	-20063.333984375	-1010.5165405273438
0.004	-0.0	-0.0	-0.0	-4.751079559326172	84.82959747314453	-618.06494140625	0.1107721328735351	-4.503942489624023	-159.6509552001953	-35.17929458618164	16.104564666748047	75.3671646118164	-0.0	-0.0	-0.0	33503.203125	-19979.037109375	-1009.7981567382812
0.0045000000000000005	-0.0	-0.0	-0.0	-4.259650230407715	84.85214233398438	-625.2181396484375	0.7766123414039612	-3.2682154178619385	-152.83895874023438	-35.2465934753418	16.217105865478516	75.7177963256836	-0.0	-0.0	-0.0	32472.66015625	-19987.447265625	-1097.8472900390625
0.005	-0.0	-0.0	-0.0	-3.9698097705841056	85.03041076660156	-632.368896484375	0.9089993238449096	-1.280322551727295	-147.60406494140625	-35.134822845458984	16.217018127441406	75.98112487792969	-0.0	-0.0	-0.0	31715.509765625	-20054.33984375	-1067.66064453125
0.0055	-0.0	-0.0	-0.0	-4.371242523193359	84.94126892089844	-638.725830078125	1.3749781847000122	0.4195474088191986	-142.01718139648438	-35.1347770690918	16.329561233520508	75.9814224243164	-0.0	-0.0	-0.0	30841.62109375	-19942.78515625	-1126.1490478515625
0.006	-0.0	-0.0	-0.0	-3.813702344894409	85.14205932617188	-644.9935302734375	1.4416415691375732	2.053424596786499	-137.04214477539062	-35.60417556762695	16.351306915283203	75.27864837646484	-0.0	-0.0	-0.0	30368.380859375	-19664.029296875	-1192.436767578125
0.006500000000000001	-0.0	-0.0	-0.0	-3.925262451171875	85.05274963378906	-650.9097290039062	1.463781237602234	3.245901584625244	-133.2011260986328	-35.38101577758789	16.082359313964844	75.10525512695312	-0.0	-0.0	-0.0	29210.337890625	-19300.259765625	-1377.4945068359375
0.007	-0.0	-0.0	-0.0	-4.147728443145752	84.98602294921875	-657.5309448242188	1.3971304893493652	3.577156543731689	-127.17872619628906	-35.402523040771484	16.24085807800293	75.63123321533203	-0.0	-0.0	-0.0	28230.75	-18941.931640625	-1244.0736083984375
0.0075	-0.0	-0.0	-0.0	-3.6351969242095943	85.11901092529297	-662.3900146484375	0.9762271642684937	3.841789960861206	-124.12419891357422	-35.24663543701172	15.92531394958496	76.59329223632812	-0.0	-0.0	-0.0	27652.787109375	-18224.40234375	-1407.303466796875
0.008	-0.0	-0.0	-0.0	-3.501666784286499	85.63249969482422	-667.0655517578125	0.6437773704528809	3.709510803222656	-119.15241241455078	-35.22407913208008	16.283721923828125	75.7171630859375	-0.0	-0.0	-0.0	26847.8125	-17937.951171875	-1504.1751708984375
0.0085	-0.0	-0.0	-0.0	-3.479209899902344	86.34414672851562	-669.1008911132812	1.153240203857422	4.017695426940918	-116.96826934814452	-35.22495651245117	16.46444320678711	77.46823120117188	-0.0	-0.0	-0.0	25855.630859375	-17663.28515625	-1666.814208984375
0.009000000000000001	-0.0	-0.0	-0.0	-3.969417572021485	86.0999755859375	-672.45458984375	1.2419509887695312	3.908429145812988	-112.86095428466795	-35.3134651184082	16.507827758789062	77.28992462158203	-0.0	-0.0	-0.0	24769.26171875	-17164.626953125	-1584.4969482421875
0.0095	-0.0	-0.0	-0.0	-3.9242103099823	86.63369750976562	-675.190673828125	1.619204878807068	3.575636148452759	-107.9760513305664	-35.40288543701172	16.126142501831055	74.757568359375	-0.0	-0.0	-0.0	24223.419921875	-16390.478515625	-1436.802001953125
0.01	-0.0	-0.0	-0.0	-4.0168328285217285	86.5230484008789	-675.4542846679688	2.727591753005981	3.841465950012207	-104.7454833984375	-35.26933670043945	16.01459503173828	75.80039978027344	-0.0	-0.0	-0.0	23380.88671875	-16183.68359375	-1376.9937744140625
0.0105	-0.0	-0.0	-0.0	-5.061031818389893	87.01388549804688	-674.9321899414062	3.394700765609741	3.9532995223999023	-101.43092346191406	-35.067718505859375	16.127431869506836	75.18710327148438	-0.0	-0.0	-0.0	22350.458984375	-15536.455078125	-1367.8349609375
0.011	-0.0	-0.0	-0.0	-5.196883201599121	87.30397033691406	-674.759033203125	3.991985321044922	4.128699779510498	-97.9343490600586	-35.20273208618164	16.060407638549805	75.55052185058594	-0.0	-0.0	-0.0	22055.615234375	-15054.5732421875	-1309.3150634765625
0.0115	-0.0	-0.0	-0.0	-6.264278888702393	87.70589447021484	-677.47021484375	3.970898151397705	4.260435581207275	-95.40138244628906	-35.24663543701172	15.859334945678713	76.06716918945312	-0.0	-0.0	-0.0	21205.046875	-14763.6748046875	-1212.8056640625
0.012	-0.0	-0.0	-0.0	-6.736258029937744	87.81443786621094	-675.5569458007812	3.991985321044922	4.525287628173828	-92.77914428710938	-35.513118743896484	16.060531616210938	76.58973693847656	-0.0	-0.0	-0.0	20743.193359375	-14241.630859375	-1183.1097412109375
0.0125	-0.0	-0.0	-0.0	-6.958419799804688	87.59243774414062	-673.9649047851562	4.167650699615479	4.282727718353272	-88.95155334472656	-35.558719635009766	16.148521423339844	75.02203369140625	-0.0	-0.0	-0.0	20175.251953125	-14015.1298828125	-1345.95556640625
0.013000000000000001	-0.0	-0.0	-0.0	-8.047922134399414	87.50330352783203	-673.6043090820312	3.524033546447754	4.08355188369751	-88.25331115722656	-35.381858825683594	15.905765533447266	76.05875396728516	-0.0	-0.0	-0.0	19758.62890625	-13699.5517578125	-1398.2308349609375
0.0135	-0.0	-0.0	-0.0	-8.074577331542969	87.43897247314453	-671.666015625	3.12753701210022	4.216880798339844	-87.10953521728516	-35.42555236816406	16.30532455444336	75.79696655273438	-0.0	-0.0	-0.0	19698.505859375	-13505.125	-1442.665283203125
0.014	-0.0	-0.0	-0.0	-7.912472724914551	86.99347686767578	-672.8982543945312	3.061561107635498	4.01760196685791	-85.1118392944336	-35.24427032470703	16.127653121948242	76.25596618652344	-0.0	-0.0	-0.0	19330.326171875	-13203.5859375	-1472.4144287109375
0.0145	-0.0	-0.0	-0.0	-8.161616325378418	86.88157653808594	-669.4661865234375	3.1297593116760254	4.105881690979004	-86.06161499023438	-35.46905899047852	16.197002410888672	75.90543365478516	-0.0	-0.0	-0.0	19143.380859375	-13229.3828125	-1442.67236328125
0.015	-0.0	-0.0	-0.0	-7.738401412963867	86.90214538574219	-667.6915283203125	3.434650182723999	3.6641979217529297	-83.44723510742188	-35.13676834106445	16.261356353759766	74.86355590820312	-0.0	-0.0	-0.0	19148.953125	-13096.9169921875	-1368.7818603515625
0.0155	-0.0	-0.0	-0.0	-7.626201629638672	86.38770294189453	-665.4921264648438	3.5761559009552	3.752444505691528	-83.78668212890625	-35.093536376953125	16.26409339904785	76.58718872070312	-0.0	-0.0	-0.0	18665.1484375	-13175.5302734375	-1427.9996337890625
0.016	-0.0	-0.0	-0.0	-7.73564863204956	86.07433319091797	-665.0271606445312	3.926092624664306	3.44709587097168	-81.18279266357422	-35.26971435546875	16.348390579223633	74.7528076171875	-0.0	-0.0	-0.0	18468.888671875	-12634.98828125	-1168.4901123046875
0.0165	-0.0	-0.0	-0.0	-7.513867855072021	85.76644134521484	-663.8184814453125	4.055151462554932	3.48736572265625	-81.0137710571289	-35.11394119262695	16.441198348999023	74.32291412353516	-0.0	-0.0	-0.0	18149.52734375	-12642.9873046875	-1226.8375244140625
0.017	-0.0	-0.0	-0.0	-7.582893371582031	85.60826110839844	-662.8274536132812	4.060651779174805	3.441713809967041	-77.60174560546875	-35.356101989746094	16.571374893188477	75.2730712890625	-0.0	-0.0	-0.0	17572.390625	-12208.3388671875	-1101.4610595703125
0.0175	-0.0	-0.0	-0.0	-7.367684841156006	85.1824722290039	-661.0614624023438	3.949127674102783	2.734989881515503	-77.26453399658203	-35.249935150146484	16.301198959350586	76.14369201660156	-0.0	-0.0	-0.0	16985.09765625	-11965.1025390625	-1189.7230224609375
0.018000000000000002	-0.0	-0.0	-0.0	-7.1368408203125	84.38981628417969	-659.3082275390625	3.4169042110443115	2.6496505737304688	-75.7537841796875	-35.09430694580078	16.284503936767578	75.98776245117188	-0.0	-0.0	-0.0	16643.853515625	-11355.0615234375	-1138.44775390625
0.0185	-0.0	-0.0	-0.0	-6.89571475982666	83.8090591430664	-657.0979614257812	2.792775154113769	2.365016222000122	-74.11060333251953	-35.33256530761719	16.354642868041992	76.33901977539062	-0.0	-0.0	-0.0	16607.166015625	-11260.765625	-1316.9228515625
0.019	-0.0	-0.0	-0.0	-6.756817817687988	83.56501770019531	-657.267822265625	1.971279859542847	2.580885410308838	-74.97698211669922	-35.20006561279297	16.124279022216797	74.40185546875	-0.0	-0.0	-0.0	16478.400390625	-11086.3115234375	-1361.3580322265625
